<svg width="30" height="30" viewBox="0 0 30 30" fill="none" xmlns="http://www.w3.org/2000/svg">
<path d="M19.375 13.75C19.375 16.1662 17.4162 18.125 15 18.125C12.5838 18.125 10.625 16.1662 10.625 13.75C10.625 11.3338 12.5838 9.375 15 9.375C17.4162 9.375 19.375 11.3338 19.375 13.75Z" stroke="#141B34" stroke-width="2.41274"/>
<path d="M14.9995 2.50049C21.0878 2.50049 26.2495 7.54171 26.2495 13.6577C26.2495 19.8711 21.0036 24.2314 16.1583 27.1964C15.8051 27.3957 15.4058 27.5005 14.9995 27.5005C14.5933 27.5005 14.1939 27.3957 13.8408 27.1964C9.00439 24.2025 3.74951 19.8926 3.74951 13.6577C3.74951 7.54171 8.91131 2.50049 14.9995 2.50049Z" stroke="#141B34" stroke-width="2.41274"/>
</svg>
