<svg width="26" height="26" viewBox="0 0 26 26" fill="none" xmlns="http://www.w3.org/2000/svg">
<path d="M17.9971 17.4249C15.1446 19.0316 13.5171 22.3609 13 23.2916V8.66661C13.449 7.8584 14.7355 5.54278 16.9343 3.96893C17.8607 3.30592 18.3238 2.97441 18.912 3.27668C19.5 3.57896 19.5 4.24621 19.5 5.58069V15.1573C19.5 15.8781 19.5 16.2386 19.352 16.4919C19.2039 16.7451 18.8017 16.9718 17.9971 17.4249Z" stroke="black" stroke-width="1.04192" stroke-linecap="round" stroke-linejoin="round"/>
<path d="M12.9998 8.45602C12.2557 7.67437 10.0984 5.81793 6.47878 5.16705C4.64506 4.8373 3.7282 4.67243 2.94735 5.30436C2.1665 5.93629 2.1665 6.96245 2.1665 9.01478V16.3905C2.1665 18.2671 2.1665 19.2053 2.66765 19.7911C3.1688 20.377 4.27212 20.5753 6.47878 20.9721C8.44586 21.3259 9.98106 21.8895 11.0923 22.4559C12.1856 23.013 12.7323 23.2917 12.9998 23.2917C13.2674 23.2917 13.8141 23.013 14.9074 22.4559C16.0187 21.8895 17.5538 21.3259 19.5209 20.9721C21.7276 20.5753 22.8309 20.377 23.332 19.7911C23.8332 19.2053 23.8332 18.2671 23.8332 16.3905V9.01478C23.8332 6.96245 23.8332 5.93629 23.0523 5.30436C22.2714 4.67243 20.5832 5.16705 19.4998 5.95833" stroke="black" stroke-width="1.04192" stroke-linecap="round" stroke-linejoin="round"/>
</svg>
